<svg width="171" height="32" viewBox="0 0 171 32" fill="none" xmlns="http://www.w3.org/2000/svg">
    <path
        d="M31.9293 21.9715L30.2608 11.2903C29.8178 8.75313 27.8408 6.70816 25.2278 6.08422H25.2243C19.1576 4.63859 12.841 4.63859 6.7743 6.08422C4.1583 6.70816 2.1818 8.75263 1.7388 11.2903L0.0703027 21.9715C-0.445197 24.9251 1.9398 27.6143 5.0753 27.6143C7.5588 27.6143 9.7638 26.0963 10.5493 23.8464L10.9253 22.7681H21.0753L21.4498 23.8464C22.2358 26.0963 24.4408 27.6143 26.9243 27.6143C30.0598 27.6143 32.4448 24.9251 31.9293 21.9715ZM13.9998 15.297C13.9998 15.4576 13.9366 15.6117 13.8241 15.7253C13.7115 15.8389 13.5589 15.9027 13.3998 15.9027H10.7998V18.5277C10.7998 18.6884 10.7366 18.8425 10.6241 18.9561C10.5115 19.0697 10.3589 19.1335 10.1998 19.1335H8.9998C8.84067 19.1335 8.68806 19.0697 8.57554 18.9561C8.46302 18.8425 8.3998 18.6884 8.3998 18.5277V15.9027H5.7998C5.64067 15.9027 5.48806 15.8389 5.37554 15.7253C5.26302 15.6117 5.1998 15.4576 5.1998 15.297V14.0854C5.1998 13.9248 5.26302 13.7707 5.37554 13.6571C5.48806 13.5435 5.64067 13.4796 5.7998 13.4796H8.3998V10.8546C8.3998 10.694 8.46302 10.5399 8.57554 10.4263C8.68806 10.3127 8.84067 10.2489 8.9998 10.2489H10.1998C10.3589 10.2489 10.5115 10.3127 10.6241 10.4263C10.7366 10.5399 10.7998 10.694 10.7998 10.8546V13.4796H13.3998C13.5589 13.4796 13.7115 13.5435 13.8241 13.6571C13.9366 13.7707 13.9998 13.9248 13.9998 14.0854V15.297ZM21.5998 19.1335C21.2042 19.1335 20.8176 19.0151 20.4887 18.7932C20.1598 18.5713 19.9034 18.256 19.752 17.887C19.6007 17.518 19.5611 17.112 19.6382 16.7203C19.7154 16.3286 19.9059 15.9688 20.1856 15.6864C20.4653 15.4041 20.8217 15.2117 21.2096 15.1338C21.5976 15.0559 21.9997 15.0959 22.3652 15.2487C22.7306 15.4016 23.043 15.6604 23.2627 15.9924C23.4825 16.3245 23.5998 16.7149 23.5998 17.1143C23.5998 17.6498 23.3891 18.1634 23.014 18.5421C22.6389 18.9207 22.1302 19.1335 21.5998 19.1335ZM24.7998 14.2873C24.4042 14.2873 24.0176 14.1689 23.6887 13.947C23.3598 13.7252 23.1034 13.4098 22.952 13.0408C22.8007 12.6719 22.7611 12.2659 22.8382 11.8742C22.9154 11.4825 23.1059 11.1227 23.3856 10.8403C23.6653 10.5579 24.0217 10.3656 24.4096 10.2877C24.7976 10.2098 25.1997 10.2498 25.5652 10.4026C25.9306 10.5554 26.243 10.8142 26.4627 11.1463C26.6825 11.4783 26.7998 11.8687 26.7998 12.2681C26.7998 12.8036 26.5891 13.3172 26.214 13.6959C25.8389 14.0746 25.3302 14.2873 24.7998 14.2873Z"
        fill="url(#paint0_linear)" />
    <path
        d="M47.4 15.62H51.5V21.54C50.6733 22.1133 49.7133 22.5533 48.62 22.86C47.5267 23.1667 46.4533 23.32 45.4 23.32C43.9067 23.32 42.5667 23.0133 41.38 22.4C40.1933 21.7733 39.26 20.9067 38.58 19.8C37.9133 18.68 37.58 17.4133 37.58 16C37.58 14.5867 37.9133 13.3267 38.58 12.22C39.26 11.1 40.2 10.2333 41.4 9.62C42.6133 8.99333 43.98 8.68 45.5 8.68C46.8733 8.68 48.1 8.91333 49.18 9.38C50.2733 9.83333 51.18 10.5 51.9 11.38L48.88 14.04C48 13.0133 46.9533 12.5 45.74 12.5C44.7 12.5 43.8733 12.8133 43.26 13.44C42.6467 14.0667 42.34 14.92 42.34 16C42.34 17.0533 42.64 17.9 43.24 18.54C43.8533 19.18 44.6667 19.5 45.68 19.5C46.28 19.5 46.8533 19.3867 47.4 19.16V15.62ZM58.2711 11.86C60.1911 11.86 61.6578 12.2933 62.6711 13.16C63.6844 14.0133 64.1911 15.3333 64.1911 17.12V23H59.9911V21.56C59.4711 22.6533 58.4378 23.2 56.8911 23.2C56.0244 23.2 55.2844 23.0533 54.6711 22.76C54.0711 22.4533 53.6111 22.0467 53.2911 21.54C52.9844 21.02 52.8311 20.44 52.8311 19.8C52.8311 18.72 53.2444 17.9 54.0711 17.34C54.8978 16.78 56.1511 16.5 57.8311 16.5H59.6511C59.5044 15.6467 58.8178 15.22 57.5911 15.22C57.0978 15.22 56.5978 15.3 56.0911 15.46C55.5844 15.6067 55.1511 15.8133 54.7911 16.08L53.3511 13.1C53.9778 12.7133 54.7311 12.4133 55.6111 12.2C56.5044 11.9733 57.3911 11.86 58.2711 11.86ZM58.2511 20.48C58.5711 20.48 58.8578 20.3933 59.1111 20.22C59.3644 20.0467 59.5511 19.7867 59.6711 19.44V18.68H58.5511C57.6311 18.68 57.1711 18.9867 57.1711 19.6C57.1711 19.8533 57.2644 20.0667 57.4511 20.24C57.6511 20.4 57.9178 20.48 58.2511 20.48ZM80.6245 11.86C81.9445 11.86 82.9979 12.2667 83.7845 13.08C84.5845 13.8933 84.9845 15.12 84.9845 16.76V23H80.4645V17.54C80.4645 16.2867 80.0579 15.66 79.2445 15.66C78.8179 15.66 78.4712 15.82 78.2045 16.14C77.9512 16.46 77.8245 16.9667 77.8245 17.66V23H73.3045V17.54C73.3045 16.2867 72.8979 15.66 72.0845 15.66C71.6579 15.66 71.3112 15.82 71.0445 16.14C70.7912 16.46 70.6645 16.9667 70.6645 17.66V23H66.1445V12.06H70.4445V13.08C71.2579 12.2667 72.2912 11.86 73.5445 11.86C74.2779 11.86 74.9379 12 75.5245 12.28C76.1112 12.5467 76.5912 12.96 76.9645 13.52C77.4045 12.9867 77.9379 12.58 78.5645 12.3C79.1912 12.0067 79.8779 11.86 80.6245 11.86ZM98.7806 17.52C98.7806 17.5867 98.7606 17.94 98.7206 18.58H91.1206C91.2806 18.9933 91.5473 19.3133 91.9206 19.54C92.294 19.7533 92.7606 19.86 93.3206 19.86C93.8006 19.86 94.2006 19.8 94.5206 19.68C94.854 19.56 95.214 19.3533 95.6006 19.06L97.9606 21.44C96.894 22.6133 95.3006 23.2 93.1806 23.2C91.8606 23.2 90.7006 22.96 89.7006 22.48C88.7006 21.9867 87.9273 21.3067 87.3806 20.44C86.834 19.5733 86.5606 18.6 86.5606 17.52C86.5606 16.4267 86.8273 15.4533 87.3606 14.6C87.9073 13.7333 88.6473 13.06 89.5806 12.58C90.5273 12.1 91.5873 11.86 92.7606 11.86C93.8673 11.86 94.874 12.08 95.7806 12.52C96.7006 12.96 97.4273 13.6067 97.9606 14.46C98.5073 15.3133 98.7806 16.3333 98.7806 17.52ZM92.8006 14.94C92.334 14.94 91.9473 15.0667 91.6406 15.32C91.334 15.5733 91.134 15.9333 91.0406 16.4H94.5606C94.4673 15.9467 94.2673 15.5933 93.9606 15.34C93.654 15.0733 93.2673 14.94 92.8006 14.94ZM104.487 23.2C103.554 23.2 102.634 23.1 101.727 22.9C100.82 22.7 100.087 22.44 99.527 22.12L100.767 19.14C101.274 19.4467 101.874 19.6867 102.567 19.86C103.26 20.0333 103.934 20.12 104.587 20.12C105.107 20.12 105.467 20.08 105.667 20C105.88 19.9067 105.987 19.7733 105.987 19.6C105.987 19.4267 105.854 19.3067 105.587 19.24C105.334 19.1733 104.914 19.1067 104.327 19.04C103.434 18.9333 102.674 18.8 102.047 18.64C101.42 18.4667 100.867 18.14 100.387 17.66C99.9204 17.18 99.687 16.4933 99.687 15.6C99.687 14.8933 99.9004 14.26 100.327 13.7C100.754 13.14 101.387 12.6933 102.227 12.36C103.08 12.0267 104.1 11.86 105.287 11.86C106.114 11.86 106.92 11.94 107.707 12.1C108.507 12.2467 109.187 12.4667 109.747 12.76L108.507 15.74C107.547 15.2067 106.494 14.94 105.347 14.94C104.36 14.94 103.867 15.1133 103.867 15.46C103.867 15.6333 104 15.76 104.267 15.84C104.534 15.9067 104.954 15.9733 105.527 16.04C106.42 16.1467 107.174 16.2867 107.787 16.46C108.414 16.6333 108.96 16.96 109.427 17.44C109.907 17.92 110.147 18.6067 110.147 19.5C110.147 20.18 109.934 20.8 109.507 21.36C109.08 21.92 108.44 22.3667 107.587 22.7C106.734 23.0333 105.7 23.2 104.487 23.2ZM124.156 23L124.116 16.62L121.076 21.74H118.996L115.956 16.84V23H111.656V9H115.536L120.096 16.46L124.536 9H128.416L128.456 23H124.156ZM136.378 23.2C135.164 23.2 134.071 22.96 133.098 22.48C132.138 21.9867 131.384 21.3133 130.838 20.46C130.291 19.5933 130.018 18.6133 130.018 17.52C130.018 16.4267 130.291 15.4533 130.838 14.6C131.384 13.7333 132.138 13.06 133.098 12.58C134.071 12.1 135.164 11.86 136.378 11.86C137.604 11.86 138.698 12.1 139.658 12.58C140.631 13.06 141.384 13.7333 141.918 14.6C142.464 15.4533 142.738 16.4267 142.738 17.52C142.738 18.6133 142.464 19.5933 141.918 20.46C141.384 21.3133 140.631 21.9867 139.658 22.48C138.698 22.96 137.604 23.2 136.378 23.2ZM136.378 19.68C136.898 19.68 137.324 19.4933 137.658 19.12C137.991 18.7333 138.158 18.2 138.158 17.52C138.158 16.84 137.991 16.3133 137.658 15.94C137.324 15.5667 136.898 15.38 136.378 15.38C135.858 15.38 135.431 15.5667 135.098 15.94C134.764 16.3133 134.598 16.84 134.598 17.52C134.598 18.2 134.764 18.7333 135.098 19.12C135.431 19.4933 135.858 19.68 136.378 19.68ZM156.252 8.16V23H151.952V22.1C151.299 22.8333 150.299 23.2 148.952 23.2C147.992 23.2 147.106 22.9733 146.292 22.52C145.492 22.0533 144.852 21.3867 144.372 20.52C143.906 19.6533 143.672 18.6533 143.672 17.52C143.672 16.3867 143.906 15.3933 144.372 14.54C144.852 13.6733 145.492 13.0133 146.292 12.56C147.106 12.0933 147.992 11.86 148.952 11.86C150.166 11.86 151.092 12.1733 151.732 12.8V8.16H156.252ZM150.032 19.68C150.552 19.68 150.979 19.4933 151.312 19.12C151.646 18.7333 151.812 18.2 151.812 17.52C151.812 16.84 151.646 16.3133 151.312 15.94C150.979 15.5667 150.552 15.38 150.032 15.38C149.512 15.38 149.086 15.5667 148.752 15.94C148.419 16.3133 148.252 16.84 148.252 17.52C148.252 18.2 148.419 18.7333 148.752 19.12C149.086 19.4933 149.512 19.68 150.032 19.68ZM169.894 17.52C169.894 17.5867 169.874 17.94 169.834 18.58H162.234C162.394 18.9933 162.661 19.3133 163.034 19.54C163.407 19.7533 163.874 19.86 164.434 19.86C164.914 19.86 165.314 19.8 165.634 19.68C165.967 19.56 166.327 19.3533 166.714 19.06L169.074 21.44C168.007 22.6133 166.414 23.2 164.294 23.2C162.974 23.2 161.814 22.96 160.814 22.48C159.814 21.9867 159.041 21.3067 158.494 20.44C157.947 19.5733 157.674 18.6 157.674 17.52C157.674 16.4267 157.941 15.4533 158.474 14.6C159.021 13.7333 159.761 13.06 160.694 12.58C161.641 12.1 162.701 11.86 163.874 11.86C164.981 11.86 165.987 12.08 166.894 12.52C167.814 12.96 168.541 13.6067 169.074 14.46C169.621 15.3133 169.894 16.3333 169.894 17.52ZM163.914 14.94C163.447 14.94 163.061 15.0667 162.754 15.32C162.447 15.5733 162.247 15.9333 162.154 16.4H165.674C165.581 15.9467 165.381 15.5933 165.074 15.34C164.767 15.0733 164.381 14.94 163.914 14.94Z"
        fill="url(#paint1_linear)" />
    <defs>
        <linearGradient id="paint0_linear" x1="15.9998" y1="5" x2="15.9998" y2="27.6143" gradientUnits="userSpaceOnUse">
            <stop stop-color="#91EAE4" />
            <stop offset="1" stop-color="#0061FD" />
        </linearGradient>
        <linearGradient id="paint1_linear" x1="104" y1="4" x2="104" y2="28" gradientUnits="userSpaceOnUse">
            <stop stop-color="#91EAE4" />
            <stop offset="1" stop-color="#0061FD" />
        </linearGradient>
    </defs>
</svg>